<mxfile host="app.diagrams.net" modified="2021-01-05T08:33:37.353Z" agent="5.0 (Windows NT 10.0; Win64; x64) AppleWebKit/537.36 (KHTML, like Gecko) Chrome/86.0.4240.183 Safari/537.36" etag="jnO-j7Pj1T1O2qcFgdiD" version="14.1.8" type="github">
  <diagram id="W-YqRmsizlr0No6qvHyg" name="Page-1">
    <mxGraphModel dx="491" dy="552" grid="1" gridSize="10" guides="1" tooltips="1" connect="1" arrows="1" fold="1" page="1" pageScale="1" pageWidth="827" pageHeight="1169" math="0" shadow="0">
      <root>
        <mxCell id="0" />
        <mxCell id="1" parent="0" />
        <mxCell id="06mlNcmjOErcQc19vJZ6-1" value="学生" style="rounded=0;whiteSpace=wrap;html=1;" vertex="1" parent="1">
          <mxGeometry x="90" y="120" width="80" height="20" as="geometry" />
        </mxCell>
        <mxCell id="06mlNcmjOErcQc19vJZ6-2" value="学号" style="ellipse;whiteSpace=wrap;html=1;" vertex="1" parent="1">
          <mxGeometry x="100" y="30" width="40" height="30" as="geometry" />
        </mxCell>
        <mxCell id="06mlNcmjOErcQc19vJZ6-3" value="姓名" style="ellipse;whiteSpace=wrap;html=1;" vertex="1" parent="1">
          <mxGeometry x="50" y="40" width="40" height="30" as="geometry" />
        </mxCell>
        <mxCell id="06mlNcmjOErcQc19vJZ6-4" value="性别" style="ellipse;whiteSpace=wrap;html=1;" vertex="1" parent="1">
          <mxGeometry x="20" y="70" width="40" height="30" as="geometry" />
        </mxCell>
        <mxCell id="06mlNcmjOErcQc19vJZ6-5" value="年龄" style="ellipse;whiteSpace=wrap;html=1;" vertex="1" parent="1">
          <mxGeometry x="10" y="100" width="40" height="30" as="geometry" />
        </mxCell>
        <mxCell id="06mlNcmjOErcQc19vJZ6-6" value="系别" style="ellipse;whiteSpace=wrap;html=1;" vertex="1" parent="1">
          <mxGeometry x="170" y="70" width="40" height="30" as="geometry" />
        </mxCell>
        <mxCell id="06mlNcmjOErcQc19vJZ6-7" value="成绩" style="ellipse;whiteSpace=wrap;html=1;" vertex="1" parent="1">
          <mxGeometry x="150" y="40" width="40" height="30" as="geometry" />
        </mxCell>
        <mxCell id="06mlNcmjOErcQc19vJZ6-8" value="老师" style="rounded=0;whiteSpace=wrap;html=1;" vertex="1" parent="1">
          <mxGeometry x="360" y="250" width="70" height="30" as="geometry" />
        </mxCell>
        <mxCell id="06mlNcmjOErcQc19vJZ6-9" value="工号" style="ellipse;whiteSpace=wrap;html=1;" vertex="1" parent="1">
          <mxGeometry x="450" y="300" width="40" height="30" as="geometry" />
        </mxCell>
        <mxCell id="06mlNcmjOErcQc19vJZ6-10" value="姓名" style="ellipse;whiteSpace=wrap;html=1;" vertex="1" parent="1">
          <mxGeometry x="410" y="330" width="40" height="30" as="geometry" />
        </mxCell>
        <mxCell id="06mlNcmjOErcQc19vJZ6-11" value="性别" style="ellipse;whiteSpace=wrap;html=1;" vertex="1" parent="1">
          <mxGeometry x="360" y="330" width="40" height="30" as="geometry" />
        </mxCell>
        <mxCell id="06mlNcmjOErcQc19vJZ6-12" value="年龄" style="ellipse;whiteSpace=wrap;html=1;" vertex="1" parent="1">
          <mxGeometry x="460" y="260" width="40" height="30" as="geometry" />
        </mxCell>
        <mxCell id="06mlNcmjOErcQc19vJZ6-13" value="系别" style="ellipse;whiteSpace=wrap;html=1;" vertex="1" parent="1">
          <mxGeometry x="320" y="310" width="40" height="30" as="geometry" />
        </mxCell>
        <mxCell id="06mlNcmjOErcQc19vJZ6-18" style="edgeStyle=orthogonalEdgeStyle;rounded=0;orthogonalLoop=1;jettySize=auto;html=1;exitX=0.5;exitY=1;exitDx=0;exitDy=0;" edge="1" parent="1" source="06mlNcmjOErcQc19vJZ6-2" target="06mlNcmjOErcQc19vJZ6-2">
          <mxGeometry relative="1" as="geometry" />
        </mxCell>
        <mxCell id="06mlNcmjOErcQc19vJZ6-19" value="成绩信息" style="rounded=0;whiteSpace=wrap;html=1;" vertex="1" parent="1">
          <mxGeometry x="115" y="230" width="70" height="30" as="geometry" />
        </mxCell>
        <mxCell id="06mlNcmjOErcQc19vJZ6-20" value="课程号" style="ellipse;whiteSpace=wrap;html=1;" vertex="1" parent="1">
          <mxGeometry x="90" y="280" width="40" height="30" as="geometry" />
        </mxCell>
        <mxCell id="06mlNcmjOErcQc19vJZ6-21" value="&lt;span style=&quot;color: rgba(0 , 0 , 0 , 0) ; font-family: monospace ; font-size: 0px&quot;&gt;%3CmxGraphModel%3E%3Croot%3E%3CmxCell%20id%3D%220%22%2F%3E%3CmxCell%20id%3D%221%22%20parent%3D%220%22%2F%3E%3CmxCell%20id%3D%222%22%20value%3D%22%E5%B9%B4%E9%BE%84%22%20style%3D%22ellipse%3BwhiteSpace%3Dwrap%3Bhtml%3D1%3B%22%20vertex%3D%221%22%20parent%3D%221%22%3E%3CmxGeometry%20x%3D%2210%22%20y%3D%22100%22%20width%3D%2240%22%20height%3D%2230%22%20as%3D%22geometry%22%2F%3E%3C%2FmxCell%3E%3C%2Froot%3E%3C%2FmxGraphModel%3E&lt;/span&gt;学号" style="ellipse;whiteSpace=wrap;html=1;" vertex="1" parent="1">
          <mxGeometry x="145" y="300" width="40" height="30" as="geometry" />
        </mxCell>
        <mxCell id="06mlNcmjOErcQc19vJZ6-22" value="成绩" style="ellipse;whiteSpace=wrap;html=1;" vertex="1" parent="1">
          <mxGeometry x="200" y="300" width="40" height="30" as="geometry" />
        </mxCell>
        <mxCell id="06mlNcmjOErcQc19vJZ6-25" value="课程" style="rounded=0;whiteSpace=wrap;html=1;" vertex="1" parent="1">
          <mxGeometry x="320" y="140" width="60" height="20" as="geometry" />
        </mxCell>
        <mxCell id="06mlNcmjOErcQc19vJZ6-26" value="课程名" style="ellipse;whiteSpace=wrap;html=1;" vertex="1" parent="1">
          <mxGeometry x="340" y="70" width="40" height="30" as="geometry" />
        </mxCell>
        <mxCell id="06mlNcmjOErcQc19vJZ6-27" value="课程号" style="ellipse;whiteSpace=wrap;html=1;" vertex="1" parent="1">
          <mxGeometry x="290" y="80" width="40" height="30" as="geometry" />
        </mxCell>
        <mxCell id="06mlNcmjOErcQc19vJZ6-28" value="学分" style="ellipse;whiteSpace=wrap;html=1;" vertex="1" parent="1">
          <mxGeometry x="410" y="110" width="40" height="30" as="geometry" />
        </mxCell>
        <mxCell id="06mlNcmjOErcQc19vJZ6-29" value="课时" style="ellipse;whiteSpace=wrap;html=1;" vertex="1" parent="1">
          <mxGeometry x="390" y="80" width="40" height="30" as="geometry" />
        </mxCell>
        <mxCell id="06mlNcmjOErcQc19vJZ6-30" style="edgeStyle=orthogonalEdgeStyle;rounded=0;orthogonalLoop=1;jettySize=auto;html=1;exitX=0.5;exitY=1;exitDx=0;exitDy=0;" edge="1" parent="1" source="06mlNcmjOErcQc19vJZ6-26" target="06mlNcmjOErcQc19vJZ6-26">
          <mxGeometry relative="1" as="geometry" />
        </mxCell>
        <mxCell id="06mlNcmjOErcQc19vJZ6-32" value="" style="endArrow=none;html=1;entryX=1;entryY=0.5;entryDx=0;entryDy=0;exitX=0;exitY=0;exitDx=0;exitDy=0;" edge="1" parent="1" source="06mlNcmjOErcQc19vJZ6-1" target="06mlNcmjOErcQc19vJZ6-5">
          <mxGeometry width="50" height="50" relative="1" as="geometry">
            <mxPoint x="220" y="300" as="sourcePoint" />
            <mxPoint x="270" y="250" as="targetPoint" />
          </mxGeometry>
        </mxCell>
        <mxCell id="06mlNcmjOErcQc19vJZ6-33" value="" style="endArrow=none;html=1;entryX=1;entryY=1;entryDx=0;entryDy=0;exitX=0.25;exitY=0;exitDx=0;exitDy=0;" edge="1" parent="1" source="06mlNcmjOErcQc19vJZ6-1" target="06mlNcmjOErcQc19vJZ6-4">
          <mxGeometry width="50" height="50" relative="1" as="geometry">
            <mxPoint x="100" y="130" as="sourcePoint" />
            <mxPoint x="60" y="125" as="targetPoint" />
          </mxGeometry>
        </mxCell>
        <mxCell id="06mlNcmjOErcQc19vJZ6-34" value="" style="endArrow=none;html=1;entryX=1;entryY=1;entryDx=0;entryDy=0;exitX=0.5;exitY=0;exitDx=0;exitDy=0;" edge="1" parent="1" source="06mlNcmjOErcQc19vJZ6-1" target="06mlNcmjOErcQc19vJZ6-3">
          <mxGeometry width="50" height="50" relative="1" as="geometry">
            <mxPoint x="110" y="140" as="sourcePoint" />
            <mxPoint x="70" y="135" as="targetPoint" />
          </mxGeometry>
        </mxCell>
        <mxCell id="06mlNcmjOErcQc19vJZ6-36" value="" style="endArrow=none;html=1;entryX=0.5;entryY=1;entryDx=0;entryDy=0;exitX=0.5;exitY=0;exitDx=0;exitDy=0;" edge="1" parent="1" source="06mlNcmjOErcQc19vJZ6-1" target="06mlNcmjOErcQc19vJZ6-2">
          <mxGeometry width="50" height="50" relative="1" as="geometry">
            <mxPoint x="120" y="150" as="sourcePoint" />
            <mxPoint x="80" y="145" as="targetPoint" />
          </mxGeometry>
        </mxCell>
        <mxCell id="06mlNcmjOErcQc19vJZ6-37" value="" style="endArrow=none;html=1;entryX=0;entryY=1;entryDx=0;entryDy=0;exitX=0.75;exitY=0;exitDx=0;exitDy=0;" edge="1" parent="1" source="06mlNcmjOErcQc19vJZ6-1" target="06mlNcmjOErcQc19vJZ6-7">
          <mxGeometry width="50" height="50" relative="1" as="geometry">
            <mxPoint x="130" y="160" as="sourcePoint" />
            <mxPoint x="90" y="155" as="targetPoint" />
          </mxGeometry>
        </mxCell>
        <mxCell id="06mlNcmjOErcQc19vJZ6-39" value="" style="endArrow=none;html=1;entryX=1;entryY=0;entryDx=0;entryDy=0;exitX=0.5;exitY=1;exitDx=0;exitDy=0;" edge="1" parent="1" source="06mlNcmjOErcQc19vJZ6-6" target="06mlNcmjOErcQc19vJZ6-1">
          <mxGeometry width="50" height="50" relative="1" as="geometry">
            <mxPoint x="140" y="170" as="sourcePoint" />
            <mxPoint x="100" y="165" as="targetPoint" />
          </mxGeometry>
        </mxCell>
        <mxCell id="06mlNcmjOErcQc19vJZ6-40" value="" style="endArrow=none;html=1;entryX=0.5;entryY=0;entryDx=0;entryDy=0;exitX=0;exitY=1;exitDx=0;exitDy=0;" edge="1" parent="1" source="06mlNcmjOErcQc19vJZ6-19" target="06mlNcmjOErcQc19vJZ6-20">
          <mxGeometry width="50" height="50" relative="1" as="geometry">
            <mxPoint x="200" y="160" as="sourcePoint" />
            <mxPoint x="160" y="155" as="targetPoint" />
          </mxGeometry>
        </mxCell>
        <mxCell id="06mlNcmjOErcQc19vJZ6-41" value="" style="endArrow=none;html=1;entryX=0.5;entryY=1;entryDx=0;entryDy=0;exitX=0.5;exitY=0;exitDx=0;exitDy=0;" edge="1" parent="1" source="06mlNcmjOErcQc19vJZ6-21" target="06mlNcmjOErcQc19vJZ6-19">
          <mxGeometry width="50" height="50" relative="1" as="geometry">
            <mxPoint x="210" y="170" as="sourcePoint" />
            <mxPoint x="170" y="165" as="targetPoint" />
          </mxGeometry>
        </mxCell>
        <mxCell id="06mlNcmjOErcQc19vJZ6-42" value="" style="endArrow=none;html=1;entryX=1;entryY=1;entryDx=0;entryDy=0;exitX=0.5;exitY=0;exitDx=0;exitDy=0;" edge="1" parent="1" source="06mlNcmjOErcQc19vJZ6-22" target="06mlNcmjOErcQc19vJZ6-19">
          <mxGeometry width="50" height="50" relative="1" as="geometry">
            <mxPoint x="220" y="180" as="sourcePoint" />
            <mxPoint x="180" y="175" as="targetPoint" />
          </mxGeometry>
        </mxCell>
        <mxCell id="06mlNcmjOErcQc19vJZ6-43" value="" style="endArrow=none;html=1;entryX=0.5;entryY=1;entryDx=0;entryDy=0;exitX=0;exitY=0;exitDx=0;exitDy=0;" edge="1" parent="1" source="06mlNcmjOErcQc19vJZ6-25" target="06mlNcmjOErcQc19vJZ6-27">
          <mxGeometry width="50" height="50" relative="1" as="geometry">
            <mxPoint x="180" y="210" as="sourcePoint" />
            <mxPoint x="140" y="205" as="targetPoint" />
          </mxGeometry>
        </mxCell>
        <mxCell id="06mlNcmjOErcQc19vJZ6-44" value="" style="endArrow=none;html=1;entryX=0.5;entryY=0;entryDx=0;entryDy=0;exitX=0.5;exitY=1;exitDx=0;exitDy=0;" edge="1" parent="1" source="06mlNcmjOErcQc19vJZ6-26" target="06mlNcmjOErcQc19vJZ6-25">
          <mxGeometry width="50" height="50" relative="1" as="geometry">
            <mxPoint x="190" y="220" as="sourcePoint" />
            <mxPoint x="150" y="215" as="targetPoint" />
          </mxGeometry>
        </mxCell>
        <mxCell id="06mlNcmjOErcQc19vJZ6-45" value="" style="endArrow=none;html=1;entryX=1;entryY=0.25;entryDx=0;entryDy=0;exitX=0.5;exitY=1;exitDx=0;exitDy=0;" edge="1" parent="1" source="06mlNcmjOErcQc19vJZ6-29" target="06mlNcmjOErcQc19vJZ6-25">
          <mxGeometry width="50" height="50" relative="1" as="geometry">
            <mxPoint x="200" y="230" as="sourcePoint" />
            <mxPoint x="160" y="225" as="targetPoint" />
          </mxGeometry>
        </mxCell>
        <mxCell id="06mlNcmjOErcQc19vJZ6-46" value="" style="endArrow=none;html=1;exitX=0;exitY=1;exitDx=0;exitDy=0;" edge="1" parent="1" source="06mlNcmjOErcQc19vJZ6-28">
          <mxGeometry width="50" height="50" relative="1" as="geometry">
            <mxPoint x="210" y="240" as="sourcePoint" />
            <mxPoint x="380" y="150" as="targetPoint" />
          </mxGeometry>
        </mxCell>
        <mxCell id="06mlNcmjOErcQc19vJZ6-47" value="" style="endArrow=none;html=1;entryX=0;entryY=1;entryDx=0;entryDy=0;exitX=0.5;exitY=0;exitDx=0;exitDy=0;" edge="1" parent="1" source="06mlNcmjOErcQc19vJZ6-13" target="06mlNcmjOErcQc19vJZ6-8">
          <mxGeometry width="50" height="50" relative="1" as="geometry">
            <mxPoint x="220" y="250" as="sourcePoint" />
            <mxPoint x="180" y="245" as="targetPoint" />
          </mxGeometry>
        </mxCell>
        <mxCell id="06mlNcmjOErcQc19vJZ6-48" value="" style="endArrow=none;html=1;entryX=0.5;entryY=1;entryDx=0;entryDy=0;exitX=0.5;exitY=0;exitDx=0;exitDy=0;" edge="1" parent="1" source="06mlNcmjOErcQc19vJZ6-11" target="06mlNcmjOErcQc19vJZ6-8">
          <mxGeometry width="50" height="50" relative="1" as="geometry">
            <mxPoint x="230" y="260" as="sourcePoint" />
            <mxPoint x="190" y="255" as="targetPoint" />
          </mxGeometry>
        </mxCell>
        <mxCell id="06mlNcmjOErcQc19vJZ6-49" value="" style="endArrow=none;html=1;entryX=0.75;entryY=1;entryDx=0;entryDy=0;exitX=0.5;exitY=0;exitDx=0;exitDy=0;" edge="1" parent="1" source="06mlNcmjOErcQc19vJZ6-10" target="06mlNcmjOErcQc19vJZ6-8">
          <mxGeometry width="50" height="50" relative="1" as="geometry">
            <mxPoint x="240" y="270" as="sourcePoint" />
            <mxPoint x="200" y="265" as="targetPoint" />
          </mxGeometry>
        </mxCell>
        <mxCell id="06mlNcmjOErcQc19vJZ6-50" value="" style="endArrow=none;html=1;entryX=1;entryY=1;entryDx=0;entryDy=0;exitX=0;exitY=0;exitDx=0;exitDy=0;" edge="1" parent="1" source="06mlNcmjOErcQc19vJZ6-9" target="06mlNcmjOErcQc19vJZ6-8">
          <mxGeometry width="50" height="50" relative="1" as="geometry">
            <mxPoint x="250" y="280" as="sourcePoint" />
            <mxPoint x="210" y="275" as="targetPoint" />
          </mxGeometry>
        </mxCell>
        <mxCell id="06mlNcmjOErcQc19vJZ6-51" value="" style="endArrow=none;html=1;entryX=1;entryY=1;entryDx=0;entryDy=0;exitX=0;exitY=1;exitDx=0;exitDy=0;" edge="1" parent="1" source="06mlNcmjOErcQc19vJZ6-12" target="06mlNcmjOErcQc19vJZ6-8">
          <mxGeometry width="50" height="50" relative="1" as="geometry">
            <mxPoint x="260" y="290" as="sourcePoint" />
            <mxPoint x="220" y="285" as="targetPoint" />
          </mxGeometry>
        </mxCell>
        <mxCell id="06mlNcmjOErcQc19vJZ6-52" value="拥有" style="rhombus;whiteSpace=wrap;html=1;" vertex="1" parent="1">
          <mxGeometry x="115" y="170" width="70" height="30" as="geometry" />
        </mxCell>
        <mxCell id="06mlNcmjOErcQc19vJZ6-53" value="" style="endArrow=none;html=1;entryX=0.5;entryY=1;entryDx=0;entryDy=0;exitX=0.5;exitY=0;exitDx=0;exitDy=0;" edge="1" parent="1" source="06mlNcmjOErcQc19vJZ6-52" target="06mlNcmjOErcQc19vJZ6-1">
          <mxGeometry width="50" height="50" relative="1" as="geometry">
            <mxPoint x="220" y="300" as="sourcePoint" />
            <mxPoint x="270" y="250" as="targetPoint" />
          </mxGeometry>
        </mxCell>
        <mxCell id="06mlNcmjOErcQc19vJZ6-54" value="" style="endArrow=none;html=1;exitX=0.5;exitY=0;exitDx=0;exitDy=0;entryX=0.5;entryY=1;entryDx=0;entryDy=0;" edge="1" parent="1" source="06mlNcmjOErcQc19vJZ6-19" target="06mlNcmjOErcQc19vJZ6-52">
          <mxGeometry width="50" height="50" relative="1" as="geometry">
            <mxPoint x="220" y="300" as="sourcePoint" />
            <mxPoint x="270" y="250" as="targetPoint" />
          </mxGeometry>
        </mxCell>
        <mxCell id="06mlNcmjOErcQc19vJZ6-55" value="" style="endArrow=none;html=1;exitX=1;exitY=0.25;exitDx=0;exitDy=0;entryX=0;entryY=0.5;entryDx=0;entryDy=0;" edge="1" parent="1" source="06mlNcmjOErcQc19vJZ6-1" target="06mlNcmjOErcQc19vJZ6-56">
          <mxGeometry width="50" height="50" relative="1" as="geometry">
            <mxPoint x="220" y="300" as="sourcePoint" />
            <mxPoint x="210" y="140" as="targetPoint" />
          </mxGeometry>
        </mxCell>
        <mxCell id="06mlNcmjOErcQc19vJZ6-56" value="学习" style="rhombus;whiteSpace=wrap;html=1;" vertex="1" parent="1">
          <mxGeometry x="190" y="120" width="80" height="30" as="geometry" />
        </mxCell>
        <mxCell id="06mlNcmjOErcQc19vJZ6-57" value="" style="endArrow=none;html=1;entryX=1;entryY=0.5;entryDx=0;entryDy=0;" edge="1" parent="1" target="06mlNcmjOErcQc19vJZ6-56">
          <mxGeometry width="50" height="50" relative="1" as="geometry">
            <mxPoint x="320" y="150" as="sourcePoint" />
            <mxPoint x="270" y="250" as="targetPoint" />
          </mxGeometry>
        </mxCell>
        <mxCell id="06mlNcmjOErcQc19vJZ6-58" value="教授" style="rhombus;whiteSpace=wrap;html=1;" vertex="1" parent="1">
          <mxGeometry x="330" y="190" width="80" height="30" as="geometry" />
        </mxCell>
        <mxCell id="06mlNcmjOErcQc19vJZ6-59" value="" style="endArrow=none;html=1;entryX=0.5;entryY=0;entryDx=0;entryDy=0;exitX=0.5;exitY=1;exitDx=0;exitDy=0;" edge="1" parent="1" source="06mlNcmjOErcQc19vJZ6-58" target="06mlNcmjOErcQc19vJZ6-8">
          <mxGeometry width="50" height="50" relative="1" as="geometry">
            <mxPoint x="220" y="300" as="sourcePoint" />
            <mxPoint x="270" y="250" as="targetPoint" />
          </mxGeometry>
        </mxCell>
        <mxCell id="06mlNcmjOErcQc19vJZ6-60" value="" style="endArrow=none;html=1;entryX=0.5;entryY=1;entryDx=0;entryDy=0;exitX=0.5;exitY=0;exitDx=0;exitDy=0;" edge="1" parent="1" source="06mlNcmjOErcQc19vJZ6-58" target="06mlNcmjOErcQc19vJZ6-25">
          <mxGeometry width="50" height="50" relative="1" as="geometry">
            <mxPoint x="270" y="300" as="sourcePoint" />
            <mxPoint x="230" y="295" as="targetPoint" />
          </mxGeometry>
        </mxCell>
      </root>
    </mxGraphModel>
  </diagram>
</mxfile>
